<svg width="30" height="29" viewBox="0 0 30 29" xmlns="http://www.w3.org/2000/svg">
<path d="M15 28.4223C21.7804 28.4223 27.2769 23.109 27.2769 16.5546C27.2769 10.0003 21.7804 4.68692 15 4.68692C8.21965 4.68692 2.72308 10.0003 2.72308 16.5546C2.72308 23.109 8.21965 28.4223 15 28.4223Z" fill="#535C61"/>
<path d="M18.2359 0.577698H11.7643V2.66298H18.2359V0.577698Z" fill="#535C61"/>
<path d="M15 26.0304C20.4138 26.0304 24.8026 21.7879 24.8026 16.5546C24.8026 11.3213 20.4138 7.07883 15 7.07883C9.58625 7.07883 5.19751 11.3213 5.19751 16.5546C5.19751 21.7879 9.58625 26.0304 15 26.0304Z" fill="#E4DCD3"/>
<path d="M25.114 8.85211L25.8811 8.11053L26.6323 8.83668C26.749 8.9495 26.902 9.00589 27.0549 9.00589C27.2078 9.00589 27.3607 8.94945 27.4775 8.83668C27.7108 8.61109 27.7108 8.2453 27.4775 8.01971L25.0665 5.68914C24.833 5.46355 24.4548 5.46355 24.2213 5.68914C23.9879 5.91473 23.9879 6.28052 24.2213 6.50611L25.0359 7.29362L24.3287 7.97731C24.2547 7.90227 24.1797 7.82798 24.1037 7.7545C21.8134 5.5405 18.8122 4.26381 15.5976 4.12279V3.24066H18.2358C18.5658 3.24066 18.8335 2.98203 18.8335 2.66297V0.577689C18.8335 0.258631 18.5658 0 18.2358 0H11.7642C11.4342 0 11.1666 0.258631 11.1666 0.577689V2.66297C11.1666 2.98203 11.4342 3.24066 11.7642 3.24066H14.4024V4.12279C11.1879 4.26381 8.18668 5.5405 5.89634 7.75444C3.46473 10.1051 2.12549 13.2304 2.12549 16.5546C2.12549 19.8789 3.46473 23.0042 5.89634 25.3548C8.32802 27.7055 11.5611 29 15 29C18.439 29 21.672 27.7055 24.1037 25.3548C26.5353 23.0042 27.8746 19.8789 27.8746 16.5546C27.8746 13.7243 26.9032 11.0386 25.114 8.85211ZM12.3618 1.15538H17.6382V2.08528H12.3618V1.15538ZM15 27.8446C8.56001 27.8446 3.32071 22.78 3.32071 16.5546C3.32071 10.3293 8.56001 5.2646 15 5.2646C21.4401 5.2646 26.6794 10.3293 26.6794 16.5546C26.6794 22.78 21.4401 27.8446 15 27.8446Z" fill="black"/>
<path d="M15.0001 6.50119C9.26539 6.50119 4.59998 11.0112 4.59998 16.5546C4.59998 22.0981 9.26539 26.6081 15.0001 26.6081C20.7347 26.6081 25.4001 22.0981 25.4001 16.5546C25.4001 11.0111 20.7347 6.50119 15.0001 6.50119ZM15.0001 25.4527C9.92444 25.4527 5.79519 21.461 5.79519 16.5546C5.79519 11.6482 9.92444 7.65657 15.0001 7.65657C20.0757 7.65657 24.2049 11.6482 24.2049 16.5546C24.2049 21.461 20.0757 25.4527 15.0001 25.4527Z" fill="black"/>
<path d="M15 11.5917C14.67 11.5917 14.4024 11.8503 14.4024 12.1694V16.5239C14.4024 16.843 14.67 17.1016 15 17.1016C15.33 17.1016 15.5976 16.843 15.5976 16.5239V12.1694C15.5976 11.8503 15.33 11.5917 15 11.5917Z" fill="black"/>
<path d="M15 22.3861C14.67 22.3861 14.4024 22.6447 14.4024 22.9638V24.0064C14.4024 24.3255 14.67 24.5841 15 24.5841C15.33 24.5841 15.5976 24.3255 15.5976 24.0064V22.9638C15.5976 22.6447 15.33 22.3861 15 22.3861Z" fill="black"/>
<path d="M19.3992 21.3943C19.2052 21.1362 18.8314 21.079 18.5645 21.2665C18.2975 21.4541 18.2383 21.8153 18.4323 22.0735L19.0663 22.917C19.1832 23.0726 19.3655 23.1552 19.5502 23.1552C19.672 23.1552 19.795 23.1193 19.901 23.0448C20.168 22.8573 20.2272 22.496 20.0332 22.2379L19.3992 21.3943Z" fill="black"/>
<path d="M22.5463 18.2868L21.5205 17.9645C21.2066 17.866 20.8694 18.0319 20.7674 18.3354C20.6655 18.6388 20.8372 18.9647 21.1511 19.0633L22.1769 19.3856C22.2383 19.4048 22.3005 19.414 22.3617 19.414C22.6136 19.414 22.848 19.2588 22.93 19.0146C23.032 18.7112 22.8602 18.3854 22.5463 18.2868Z" fill="black"/>
<path d="M21.3358 15.1118C21.3969 15.1118 21.4592 15.1026 21.5205 15.0833L22.5463 14.7612C22.8603 14.6626 23.032 14.3367 22.9301 14.0332C22.8281 13.7299 22.491 13.5637 22.177 13.6623L21.1512 13.9845C20.8373 14.0831 20.6655 14.409 20.7675 14.7125C20.8495 14.9565 21.0838 15.1118 21.3358 15.1118Z" fill="black"/>
<path d="M19.9011 10.0031C19.6343 9.81563 19.2603 9.87276 19.0664 10.1309L18.4324 10.9745C18.2384 11.2326 18.2975 11.5939 18.5645 11.7814C18.6706 11.8559 18.7935 11.8918 18.9153 11.8918C19.1001 11.8918 19.2824 11.8092 19.3993 11.6536L20.0333 10.8101C20.2273 10.552 20.1681 10.1907 19.9011 10.0031Z" fill="black"/>
<path d="M15 8.46378C14.67 8.46378 14.4024 8.72241 14.4024 9.04146V10.0841C14.4024 10.4031 14.67 10.6618 15 10.6618C15.33 10.6618 15.5976 10.4031 15.5976 10.0841V9.04146C15.5976 8.72241 15.33 8.46378 15 8.46378Z" fill="black"/>
<path d="M10.9337 10.1309C10.7396 9.87276 10.3659 9.81563 10.099 10.0031C9.83195 10.1907 9.77279 10.552 9.96677 10.8101L10.6008 11.6536C10.7177 11.8092 10.8999 11.8918 11.0847 11.8918C11.2065 11.8918 11.3295 11.8559 11.4355 11.7814C11.7025 11.5939 11.7617 11.2326 11.5677 10.9745L10.9337 10.1309Z" fill="black"/>
<path d="M8.84883 13.9845L7.82303 13.6624C7.50929 13.5638 7.17194 13.7298 7.06998 14.0332C6.96803 14.3367 7.13978 14.6626 7.45371 14.7612L8.4795 15.0834C8.54082 15.1026 8.60303 15.1118 8.66429 15.1118C8.91618 15.1118 9.1505 14.9566 9.23255 14.7124C9.3345 14.409 9.16275 14.0831 8.84883 13.9845Z" fill="black"/>
<path d="M8.47951 17.9645L7.45371 18.2868C7.13985 18.3854 6.96809 18.7113 7.07004 19.0147C7.1521 19.2588 7.38636 19.4141 7.63831 19.4141C7.69945 19.4141 7.76172 19.4049 7.82315 19.3856L8.84895 19.0634C9.16281 18.9648 9.33457 18.6389 9.23261 18.3355C9.1306 18.0321 8.79373 17.8659 8.47951 17.9645Z" fill="black"/>
<path d="M11.4355 21.2665C11.1687 21.0791 10.7948 21.1361 10.6008 21.3943L9.96677 22.2379C9.77279 22.496 9.83195 22.8573 10.099 23.0448C10.205 23.1193 10.3279 23.1552 10.4498 23.1552C10.6345 23.1552 10.8168 23.0726 10.9337 22.917L11.5677 22.0735C11.7618 21.8153 11.7025 21.4541 11.4355 21.2665Z" fill="black"/>
</svg>
